<?xml version="1.0" encoding="UTF-8" standalone="no"?>
<!-- Created with Inkscape (http://www.inkscape.org/) -->
<svg
   xmlns:svg="http://www.w3.org/2000/svg"
   xmlns="http://www.w3.org/2000/svg"
   version="1.0"
   width="121"
   height="30"
   id="svg2">
  <defs
     id="defs4">
</defs>
  <g
     transform="translate(-49.674614,-302.7948)"
     id="layer1">
    <g
       transform="matrix(0.1933508,0,0,0.1933508,51.376657,304.21317)"
       id="g2387">
	<path
   d="M 66.9946,68.9756 L 80.9673,95.1909 C 72.7915,103.664 61.3223,108.958 48.6196,108.958 C 38.3252,108.958 28.8506,105.4766 21.2734,99.6694 C 29.5561,79.9536 47.7602,52.6587 72.9311,26.206 C 85.3427,34.2055 93.5644,48.1362 93.5644,64.0039 C 93.5644,70.831 92.0361,77.292 89.311,83.0893 C 81.0967,79.5044 73.4165,74.9043 66.9946,68.9756 L 66.9946,68.9756 z M 13.54,92.0947 C 7.3672,84.3931 3.6675,74.626 3.6675,64.0039 C 3.6675,39.1777 23.7959,19.0518 48.6196,19.0518 C 55.623,19.0518 62.2529,20.6558 68.1645,23.5127 C 43.2964,45.0547 24.2622,70.5088 13.54,92.0947 L 13.54,92.0947 M 92.7026,84.501 C 95.6059,78.2739 97.2343,71.3242 97.2343,64.0039 C 97.2343,47.1011 88.6078,32.2231 75.5243,23.5078 C 83.3213,15.4917 91.7432,7.5747 100.7266,0 C 90.2095,6.1855 80.3296,13.2861 71.1875,20.9414 C 64.4429,17.3989 56.7661,15.3813 48.6196,15.3813 C 21.7666,15.3813 0,37.1484 0,64.0039 C 0,76.1304 4.4517,87.2065 11.7944,95.7231 C 2.4834,115.8491 0.8447,132.0434 9.0522,137.5136 C 17.8354,143.3686 36.9404,132.7563 48.4023,115.4584 C 48.4023,115.4584 30.6723,131.453 20.9414,127.7851 C 14.9321,125.5141 14.9199,116.3476 19.8647,103.2001 C 27.9179,109.1147 37.8584,112.6161 48.6196,112.6161 C 61.9355,112.6161 73.998,107.2587 82.7788,98.5902 L 84.5078,101.8378 C 105.6982,100.1137 168.9766,98.4535 168.9766,98.4535 C 168.9766,95.4009 127.0693,98.1553 92.7026,84.501 L 92.7026,84.501"
   id="path2389"
   style="fill:#aeadae" />

	<polygon
   points="382.7593,59.54 390.6851,49.0205 363.0874,49.0156 369.8911,39.9956 397.4829,39.9956 405.4097,29.4736 350.3306,29.4736 312.4429,79.7632 367.522,79.7632 375.4429,69.2441 347.8647,69.2441 355.1616,59.54 382.7593,59.54 "
   id="polygon2391"
   style="fill:#3277bd" />

	<polygon
   points="421.0171,29.4736 383.1294,79.7632 410.6255,79.7632 448.5083,29.4736 421.0171,29.4736 "
   id="polygon2393"
   style="fill:#3277bd" />

	<polygon
   points="512.6021,29.4736 493.3999,54.9639 487.5044,29.4736 466.0161,29.4736 428.1196,79.7632 446.311,79.7632 465.3433,54.5049 471.1831,79.7632 492.9058,79.7632 530.7944,29.4736 512.6021,29.4736 "
   id="polygon2395"
   style="fill:#3277bd" />

	<path
   d="M 602.4868,29.4736 L 558.3091,29.4712 C 550.7388,29.4712 544.0288,33.0972 539.7993,38.7085 L 516.9829,68.9854 C 516.1333,70.1036 515.6352,71.5147 515.6352,73.0289 C 515.6352,76.7501 518.644,79.7633 522.3647,79.7633 L 566.5434,79.7633 C 574.103,79.7633 580.8334,76.1446 585.0571,70.5333 L 590.5464,63.2569 L 596.9194,63.2569 L 604.8999,52.6641 L 571.0659,52.6641 L 560.3794,66.8462 C 559.2808,68.2964 557.5376,69.2393 555.5737,69.2393 L 547.7944,69.2393 C 546.8217,69.2393 546.0415,68.4576 546.0415,67.4908 C 546.0415,67.0953 546.1724,66.7291 546.3921,66.4405 L 564.521,42.3883 C 565.6099,40.9308 567.3491,39.9957 569.3169,39.9957 L 577.1011,39.9957 C 578.0689,39.9957 578.8501,40.7818 578.8501,41.7437 C 578.8501,42.1348 578.7134,42.5005 578.4976,42.794 L 575.5533,46.7007 L 603.025,46.7007 L 607.8697,40.2588 C 608.7183,39.1333 609.2222,37.7319 609.2222,36.208 C 609.2222,32.4941 606.2036,29.4736 602.4868,29.4736 L 602.4868,29.4736 z"
   id="path2397"
   style="fill:#3277bd" />

	<path
   d="M 297.0693,42.7939 L 278.9458,66.8461 C 277.8516,68.2963 276.1079,69.2392 274.145,69.2392 L 266.3603,69.2392 C 265.4008,69.2392 264.6166,68.4575 264.6166,67.496 C 264.6166,67.0951 264.7484,66.7289 264.9633,66.4403 L 283.0873,42.3934 C 284.1859,40.9403 285.9267,39.9955 287.8881,39.9955 L 295.6742,39.9955 C 296.6371,39.9955 297.4183,40.7816 297.4183,41.7435 C 297.4185,42.1348 297.291,42.5005 297.0693,42.7939 L 297.0693,42.7939 z M 327.7925,36.208 C 327.7925,32.4941 324.7788,29.4736 321.0581,29.4736 L 276.8921,29.4736 C 269.3223,29.4736 262.6074,33.0971 258.3755,38.7085 L 235.5615,68.9854 C 234.7163,70.1084 234.2134,71.5147 234.2134,73.0289 C 234.2134,76.7501 237.2241,79.7633 240.9405,79.7633 L 285.1138,79.7687 C 292.6783,79.7687 299.4014,76.1447 303.6304,70.5333 L 326.4497,40.2643 C 327.2944,39.1333 327.7925,37.7319 327.7925,36.208 L 327.7925,36.208"
   id="path2399"
   style="fill:#3277bd" />

	<path
   d="M 213.106,42.7939 L 210.2149,46.6328 C 209.1158,48.0776 207.377,49.0205 205.4141,49.0205 L 194.1226,49.0156 L 200.9234,39.9956 L 211.709,39.9956 C 212.6734,39.9956 213.4575,40.7817 213.4575,41.7436 C 213.4575,42.1348 213.3232,42.5005 213.106,42.7939 L 213.106,42.7939 z M 198.377,62.3384 L 194.9776,66.8506 C 193.8809,68.2964 192.1378,69.2442 190.1744,69.2442 L 178.8878,69.2442 L 186.1969,59.5401 L 196.9825,59.5401 C 197.9469,59.5401 198.7257,60.3262 198.7257,61.2833 C 198.7256,61.6841 198.5991,62.0503 198.377,62.3384 L 198.377,62.3384 M 223.8867,55.853 C 229.3076,54.6269 234.0083,51.4961 237.2485,47.2036 L 242.4765,40.2641 C 243.3237,39.1332 243.8266,37.7319 243.8266,36.2079 C 243.8266,32.494 240.811,29.4735 237.0947,29.4735 L 208.8496,29.4735 L 181.3642,29.4735 L 143.4711,79.7631 L 170.4711,79.7631 L 201.143,79.7685 C 208.7128,79.7685 215.4306,76.1445 219.6645,70.5331 L 225.0078,63.4374 C 225.6885,62.5434 226.0869,61.4105 226.0869,60.1991 C 226.0869,58.4165 225.2202,56.8345 223.8867,55.853 L 223.8867,55.853"
   id="path2401"
   style="fill:#3277bd" />

</g>
  </g>
</svg>
